
<svg xmlns="http://www.w3.org/2000/svg" height="611pt" version="1.1" viewBox="1 -142 611.99999 611" width="611pt">
<g id="surface1">
<path d="M 56.660156 20.898438 C 52.988281 27.070312 51.039062 34.117188 51 41.300781 L 51 61.699219 L 132.601562 61.699219 L 132.601562 20.898438 Z M 56.660156 20.898438 " style=" stroke:none;fill-rule:nonzero;fill:rgb(41.176471%,80%,84.313725%);fill-opacity:1;" />
<path d="M 153 20.898438 L 214.199219 20.898438 L 214.199219 61.699219 L 153 61.699219 Z M 153 20.898438 " style=" stroke:none;fill-rule:nonzero;fill:rgb(41.176471%,80%,84.313725%);fill-opacity:1;" />
<path d="M 234.601562 20.898438 L 295.800781 20.898438 L 295.800781 61.699219 L 234.601562 61.699219 Z M 234.601562 20.898438 " style=" stroke:none;fill-rule:nonzero;fill:rgb(41.176471%,80%,84.313725%);fill-opacity:1;" />
<path d="M 316.199219 20.898438 L 377.398438 20.898438 L 377.398438 61.699219 L 316.199219 61.699219 Z M 316.199219 20.898438 " style=" stroke:none;fill-rule:nonzero;fill:rgb(41.176471%,80%,84.313725%);fill-opacity:1;" />
<path d="M 397.800781 20.898438 L 459 20.898438 L 459 61.699219 L 397.800781 61.699219 Z M 397.800781 20.898438 " style=" stroke:none;fill-rule:nonzero;fill:rgb(41.176471%,80%,84.313725%);fill-opacity:1;" />
<path d="M 479.398438 20.898438 L 479.398438 61.699219 L 581.398438 61.699219 L 581.398438 41.300781 C 581.359375 34.117188 579.410156 27.070312 575.738281 20.898438 Z M 479.398438 20.898438 " style=" stroke:none;fill-rule:nonzero;fill:rgb(41.176471%,80%,84.313725%);fill-opacity:1;" />
<path d="M 540.601562 0.5 L 91.800781 0.5 C 77.285156 0.53125 63.882812 8.3125 56.660156 20.898438 L 575.738281 20.898438 C 568.515625 8.3125 555.113281 0.53125 540.601562 0.5 Z M 540.601562 0.5 " style=" stroke:none;fill-rule:nonzero;fill:rgb(86.666667%,21.960784%,10.196078%);fill-opacity:1;" />
<path d="M 51 204.5 L 21.480469 219.257812 C 14.566406 222.71875 10.199219 229.773438 10.199219 237.507812 L 10.199219 296.300781 L 61.199219 296.300781 C 61.199219 279.398438 74.898438 265.699219 91.800781 265.699219 C 108.699219 265.699219 122.398438 279.398438 122.398438 296.300781 L 408 296.300781 C 408 279.398438 421.699219 265.699219 438.601562 265.699219 C 455.5 265.699219 469.199219 279.398438 469.199219 296.300781 L 581.398438 296.300781 L 581.398438 61.699219 L 51 61.699219 Z M 51 204.5 " style=" stroke:none;fill-rule:nonzero;fill:rgb(86.666667%,21.960784%,10.196078%);fill-opacity:1;" />
<path d="M 499.800781 153.5 L 581.398438 153.5 L 581.398438 286.101562 L 499.800781 286.101562 Z M 499.800781 153.5 " style=" stroke:none;fill-rule:nonzero;fill:rgb(41.176471%,80%,84.313725%);fill-opacity:1;" />
<path d="M 10.199219 286.101562 L 612 286.101562 L 612 306.5 L 10.199219 306.5 Z M 10.199219 286.101562 " style=" stroke:none;fill-rule:nonzero;fill:rgb(86.666667%,21.960784%,10.196078%);fill-opacity:1;" />
<path d="M 51 102.5 L 581.398438 102.5 L 581.398438 122.898438 L 51 122.898438 Z M 51 102.5 " style=" stroke:none;fill-rule:nonzero;fill:rgb(76.862745%,19.215686%,9.019608%);fill-opacity:1;" />
<path d="M 142.800781 61.699219 L 469.199219 61.699219 L 469.199219 122.898438 L 142.800781 122.898438 Z M 142.800781 61.699219 " style=" stroke:none;fill-rule:nonzero;fill:rgb(96.078431%,68.235294%,27.058824%);fill-opacity:1;" />
<path d="M 142.800781 102.5 L 469.199219 102.5 L 469.199219 122.898438 L 142.800781 122.898438 Z M 142.800781 102.5 " style=" stroke:none;fill-rule:nonzero;fill:rgb(94.117647%,61.960784%,14.901961%);fill-opacity:1;" />
<path d="M 153 235.101562 L 397.800781 235.101562 L 397.800781 255.5 L 153 255.5 Z M 153 235.101562 " style=" stroke:none;fill-rule:nonzero;fill:rgb(76.862745%,19.215686%,9.019608%);fill-opacity:1;" />
<path d="M 20.398438 153.5 L 0 153.5 L 0 122.898438 C 0 111.628906 9.128906 102.5 20.398438 102.5 L 51 102.5 L 51 122.898438 L 20.398438 122.898438 Z M 20.398438 153.5 " style=" stroke:none;fill-rule:nonzero;fill:rgb(76.470588%,78.823529%,81.960784%);fill-opacity:1;" />
<path d="M 10.199219 235.101562 L 40.800781 235.101562 L 40.800781 255.5 L 10.199219 255.5 Z M 10.199219 235.101562 " style=" stroke:none;fill-rule:nonzero;fill:rgb(81.568627%,84.313725%,87.45098%);fill-opacity:1;" />
<path d="M 122.398438 296.300781 C 122.398438 313.199219 108.699219 326.898438 91.800781 326.898438 C 74.898438 326.898438 61.199219 313.199219 61.199219 296.300781 C 61.199219 279.398438 74.898438 265.699219 91.800781 265.699219 C 108.699219 265.699219 122.398438 279.398438 122.398438 296.300781 Z M 122.398438 296.300781 " style=" stroke:none;fill-rule:nonzero;fill:rgb(41.176471%,48.235294%,54.901961%);fill-opacity:1;" />
<path d="M 469.199219 296.300781 C 469.199219 313.199219 455.5 326.898438 438.601562 326.898438 C 421.699219 326.898438 408 313.199219 408 296.300781 C 408 279.398438 421.699219 265.699219 438.601562 265.699219 C 455.5 265.699219 469.199219 279.398438 469.199219 296.300781 Z M 469.199219 296.300781 " style=" stroke:none;fill-rule:nonzero;fill:rgb(41.176471%,48.235294%,54.901961%);fill-opacity:1;" />
<path d="M 153 153.5 L 132.601562 122.898438 L 51 122.898438 L 51 204.5 L 459 204.5 L 459 153.5 Z M 153 153.5 " style=" stroke:none;fill-rule:nonzero;fill:rgb(41.176471%,80%,84.313725%);fill-opacity:1;" />
<path d="M 51 184.101562 L 459 184.101562 L 459 204.5 L 51 204.5 Z M 51 184.101562 " style=" stroke:none;fill-rule:nonzero;fill:rgb(38.039216%,74.117647%,78.039216%);fill-opacity:1;" />
<path d="M 132.601562 204.5 L 153 204.5 L 153 153.5 L 132.601562 122.898438 Z M 132.601562 204.5 " style=" stroke:none;fill-rule:nonzero;fill:rgb(31.764706%,61.568627%,65.098039%);fill-opacity:1;" />
<path d="M 51 41.300781 L 581.398438 41.300781 L 581.398438 61.699219 L 51 61.699219 Z M 51 41.300781 " style=" stroke:none;fill-rule:nonzero;fill:rgb(38.039216%,74.117647%,78.039216%);fill-opacity:1;" />
<path d="M 214.199219 153.5 L 234.601562 153.5 L 234.601562 204.5 L 214.199219 204.5 Z M 214.199219 153.5 " style=" stroke:none;fill-rule:nonzero;fill:rgb(31.764706%,61.568627%,65.098039%);fill-opacity:1;" />
<path d="M 295.800781 153.5 L 316.199219 153.5 L 316.199219 204.5 L 295.800781 204.5 Z M 295.800781 153.5 " style=" stroke:none;fill-rule:nonzero;fill:rgb(31.764706%,61.568627%,65.098039%);fill-opacity:1;" />
<path d="M 377.398438 153.5 L 397.800781 153.5 L 397.800781 204.5 L 377.398438 204.5 Z M 377.398438 153.5 " style=" stroke:none;fill-rule:nonzero;fill:rgb(31.764706%,61.568627%,65.098039%);fill-opacity:1;" />
<path d="M 499.800781 265.699219 L 581.398438 265.699219 L 581.398438 286.101562 L 499.800781 286.101562 Z M 499.800781 265.699219 " style=" stroke:none;fill-rule:nonzero;fill:rgb(38.039216%,74.117647%,78.039216%);fill-opacity:1;" />
<path d="M 530.398438 153.5 L 550.800781 153.5 L 550.800781 286.101562 L 530.398438 286.101562 Z M 530.398438 153.5 " style=" stroke:none;fill-rule:nonzero;fill:rgb(81.568627%,84.313725%,87.45098%);fill-opacity:1;" />
<path d="M 30.601562 102.5 L 51 102.5 L 51 122.898438 L 30.601562 122.898438 Z M 30.601562 102.5 " style=" stroke:none;fill-rule:nonzero;fill:rgb(71.764706%,74.117647%,76.862745%);fill-opacity:1;" />
<path d="M 295.800781 20.898438 L 316.199219 20.898438 L 316.199219 61.699219 L 295.800781 61.699219 Z M 295.800781 20.898438 " style=" stroke:none;fill-rule:nonzero;fill:rgb(31.764706%,61.568627%,65.098039%);fill-opacity:1;" />
<path d="M 214.199219 20.898438 L 234.601562 20.898438 L 234.601562 61.699219 L 214.199219 61.699219 Z M 214.199219 20.898438 " style=" stroke:none;fill-rule:nonzero;fill:rgb(31.764706%,61.568627%,65.098039%);fill-opacity:1;" />
<path d="M 132.601562 20.898438 L 153 20.898438 L 153 61.699219 L 132.601562 61.699219 Z M 132.601562 20.898438 " style=" stroke:none;fill-rule:nonzero;fill:rgb(31.764706%,61.568627%,65.098039%);fill-opacity:1;" />
<path d="M 377.398438 20.898438 L 397.800781 20.898438 L 397.800781 61.699219 L 377.398438 61.699219 Z M 377.398438 20.898438 " style=" stroke:none;fill-rule:nonzero;fill:rgb(31.764706%,61.568627%,65.098039%);fill-opacity:1;" />
<path d="M 459 20.898438 L 479.398438 20.898438 L 479.398438 61.699219 L 459 61.699219 Z M 459 20.898438 " style=" stroke:none;fill-rule:nonzero;fill:rgb(31.764706%,61.568627%,65.098039%);fill-opacity:1;" />
</g>
</svg>
